<svg id="Ebene_1" data-name="Ebene 1" xmlns="http://www.w3.org/2000/svg" viewBox="0 0 400 400"><defs><style>.cls-1{fill:#5bace1;}</style></defs><title>Digimember-Logo-Standalone</title><path class="cls-1" d="M342.57,305.55c-61.21,44-178.3,38.08-245.7-33.21-33.51-35.15-47.73-80.88-41.41-120.51,6-39.77,32.21-73.13,71.16-87.37,28.16-10.37,46.47-11,79.42-9,1.83,0-14.29,11-9,10.09,18.9-3.37,80.54-2.94,80.48-3.06-.44-.91-71.44-29.4-80.35-35.3-7-3.78,11.42,14.68,9.16,14.09-17.89-3.94-62.1-8.18-110.82,15.15C52.21,77.18,21.57,116.5,13.66,162.06,5.41,207.44,20.09,258.75,58.52,299c77.36,81.6,212.22,83.78,282.1,31.72,46.68-34.37,55.92-83,40.49-131.65C391,239.18,380.94,278.37,342.57,305.55Z"/><g id="_Gruppe_" data-name="&lt;Gruppe&gt;"><path class="cls-1" d="M187.88,187.26a1.66,1.66,0,0,1,0,.27C187.89,187.48,187.89,187.39,187.88,187.26Z"/><path class="cls-1" d="M198.77,190.6C193.91,204.67,133,295.46,131.9,297.17c.79-.75,31.19-29.32,92.45-40.89C278,246.16,329,262.8,330.82,263.5c-.15-.47-28.05-27.56-48.51-45.78-13.1-11.67-26.55-23.53-37.91-33.35,14.68-10.06,22.51-27.07,18.39-43.59-5.48-22-30.06-34.81-54.89-28.61s-40.51,29-35,51c3.25,13,13.18,22.8,25.89,27.35C198.76,190.57,198.78,190.58,198.77,190.6Z"/><path class="cls-1" d="M187.9,187.53a1.66,1.66,0,0,0,0-.27C187.89,187.39,187.89,187.48,187.9,187.53Z"/></g></svg>